HIERARCHY
ROOT Hips
{
  OFFSET -331.093 83.8371 -317.828
  CHANNELS 6 Xposition Yposition Zposition Zrotation Xrotation Yrotation
  JOINT LeftUpLeg
  {
    OFFSET 8.64259 1.95398 -2.38835
    CHANNELS 3 Zrotation Xrotation Yrotation
    JOINT LeftLeg
    {
      OFFSET 43.7702 0 0
      CHANNELS 3 Zrotation Xrotation Yrotation
      JOINT LeftFoot
      {
        OFFSET 40.6238 0 0
        CHANNELS 3 Zrotation Xrotation Yrotation
        JOINT LeftToeBase
        {
          OFFSET 12.7242 0 0
          CHANNELS 3 Zrotation Xrotation Yrotation
          End Site
          {
            OFFSET 0 0 0
          }
        }
      }
    }
  }
  JOINT RightUpLeg
  {
    OFFSET -8.2249 1.95398 -2.59336
    CHANNELS 3 Zrotation Xrotation Yrotation
    JOINT RightLeg
    {
      OFFSET 43.5653 0 0
      CHANNELS 3 Zrotation Xrotation Yrotation
      JOINT RightFoot
      {
        OFFSET 40.6238 0 0
        CHANNELS 3 Zrotation Xrotation Yrotation
        JOINT RightToeBase
        {
          OFFSET 12.7242 0 0
          CHANNELS 3 Zrotation Xrotation Yrotation
          End Site
          {
            OFFSET 0 0 0
          }
        }
      }
    }
  }
  JOINT Spine
  {
    OFFSET 0.165834 0.87714 6.61349
    CHANNELS 3 Zrotation Xrotation Yrotation
    JOINT Spine1
    {
      OFFSET 7.38963 1.71661e-005 0
      CHANNELS 3 Zrotation Xrotation Yrotation
      JOINT Spine2
      {
        OFFSET 11.9445 1.14441e-005 0
        CHANNELS 3 Zrotation Xrotation Yrotation
        JOINT Spine3
        {
          OFFSET 14.7254 4.19617e-005 0
          CHANNELS 3 Zrotation Xrotation Yrotation
          JOINT Spine4
          {
            OFFSET 10.9679 0 0
            CHANNELS 3 Zrotation Xrotation Yrotation
            JOINT RightShoulder
            {
              OFFSET 2.46616 -1.6653 3.69651
              CHANNELS 3 Zrotation Xrotation Yrotation
              JOINT RightArm
              {
                OFFSET 13.0012 0 0
                CHANNELS 3 Zrotation Xrotation Yrotation
                JOINT RightForeArm
                {
                  OFFSET 28.7848 1.62311e-005 0
                  CHANNELS 3 Zrotation Xrotation Yrotation
                  JOINT RightHand
                  {
                    OFFSET 26.5688 1.62095e-005 0
                    CHANNELS 3 Zrotation Xrotation Yrotation
                    End Site
                    {
                      OFFSET 0 0 0
                    }
                  }
                }
              }
            }
            JOINT LeftShoulder
            {
              OFFSET 2.38034 -1.29275 -3.7523
              CHANNELS 3 Zrotation Xrotation Yrotation
              JOINT LeftArm
              {
                OFFSET 16.3182 6.07031e-005 0
                CHANNELS 3 Zrotation Xrotation Yrotation
                JOINT LeftForeArm
                {
                  OFFSET 27.0901 0 0
                  CHANNELS 3 Zrotation Xrotation Yrotation
                  JOINT LeftHand
                  {
                    OFFSET 24.5451 1.51738e-005 0
                    CHANNELS 3 Zrotation Xrotation Yrotation
                    End Site
                    {
                      OFFSET 0 0 0
                    }
                  }
                }
              }
            }
            JOINT Neck
            {
              OFFSET 5.0226 -0.0266342 0
              CHANNELS 3 Zrotation Xrotation Yrotation
              JOINT Head
              {
                OFFSET 6.69364 2.86102e-005 0
                CHANNELS 3 Zrotation Xrotation Yrotation
                End Site
                {
                  OFFSET 0 0 0
                }
              }
            }
          }
        }
      }
    }
  }
}
MOTION
Frames:	11
Frame Time:	0.0416667
-321.018 84.8292 -307.45 118.323 -4.19613 69.7244 -122.968 -21.9757 136.334 2.72247 56.7888 -7.10603 -2.77281 -43.059 -63.1946 -77.2961 -28.1082 -53.9232 -86.8317 -33.2169 145.146 -70.0366 -1.23669 -74.9884 159.808 -25.918 5.4771 -1.75087 4.40173 -25.3075 -1.88079 9.5957 -88.086 7.71783 -2.92208 3.9309 -3.95616 -2.7464 4.0555 -26.489 -3.96982 2.87163 -6.47634 -3.9698 2.87163 158.125 -36.816 7.27789 -58.4235 34.7307 -108.789 -124.374 11.5804 179.971 -43.5395 -15.4527 37.3985 -83.7694 -69.6961 90.3889 -23.6005 27.6087 -18.3129 159.65 11.8913 -139.767 15.3259 -3.26906 -24.5802 -107.592 -7.97552 142.119 79.7523 8.63929 -163.561 
-321.442 84.8473 -307.821 118.525 -4.32383 69.7444 -122.405 -21.8039 136.428 3.06791 58.3499 -7.29171 -3.52643 -43.4639 -64.3684 -75.3972 -27.8334 -53.655 -87.1852 -33.6573 145.438 -70.8599 -1.07509 -75.7981 159.879 -26.4101 5.357 -1.92401 4.45113 -25.3481 -1.87909 9.62809 -88.0516 7.65299 -2.90489 3.99475 -4.02124 -2.72642 4.11852 -26.5526 -3.97095 2.93775 -6.53992 -3.97094 2.93776 158.039 -36.7427 7.23336 -59.0796 34.4163 -108.693 -123.437 11.934 179.971 -44.0147 -15.6206 37.338 -83.2955 -69.5348 90.9552 -23.391 27.5645 -18.0929 159.827 11.7563 -140.13 15.2287 -3.23135 -24.4544 -106.374 -6.68537 142.863 80.4513 9.07833 -164.741 
-322.645 84.9074 -308.871 119.092 -4.69222 69.8007 -120.827 -21.3269 136.676 4.17862 62.8583 -7.97679 -5.5016 -44.5245 -67.8315 -69.5422 -27.1134 -52.6758 -88.3332 -35.1125 146.172 -73.4962 -0.662394 -78.2681 160.014 -28.0909 4.93696 -2.40104 4.5918 -25.4831 -1.87428 9.71935 -87.9531 7.47004 -2.85609 4.1783 -4.20488 -2.66961 4.29971 -26.7316 -3.97922 3.12773 -6.71895 -3.9792 3.12772 157.813 -36.5598 7.10691 -61.1811 33.6211 -108.306 -120.652 13.2713 179.971 -45.2678 -16.0392 37.12 -81.9998 -69.0736 92.5126 -22.7706 27.4393 -17.4683 160.297 11.3716 -141.096 14.9531 -3.12746 -24.1108 -110.078 -12.4226 142.181 80.4095 10.1195 -156.009 
-324.509 85.0175 -310.496 119.961 -5.27896 69.8883 -118.404 -20.5994 137.011 6.63698 70.1046 -9.84831 -7.93133 -45.9623 -73.5243 -58.6583 -26.2612 -50.0254 -90.5386 -37.9748 146.999 -79.3831 -0.273103 -82.6236 159.697 -32.4206 3.6653 -3.11611 4.81731 -25.756 -1.86708 9.85934 -87.797 7.18915 -2.78003 4.46935 -4.48692 -2.58084 4.58708 -27.0059 -3.994 3.42856 -6.99322 -3.99397 3.42857 157.5 -36.3339 6.90906 -65.4993 32.7219 -107.238 -115.783 17.2136 179.97 -46.9982 -16.5388 36.633 -80.1112 -68.3447 94.808 -21.7431 27.2523 -16.4941 160.95 10.768 -142.426 14.5294 -2.97622 -23.6143 -118.806 -24.1963 138.56 78.8589 11.6901 -138.334 
-326.916 85.1899 -312.59 121.063 -6.06138 70.002 -115.296 -19.6816 137.386 14.3426 79.7188 -16.9208 -9.33552 -47.5534 -80.9908 -40.1595 -25.3561 -42.7666 -94.3873 -42.904 147.254 -110.54 1.46847 -88.0962 147.284 -59.2823 -13.6609 -4.01576 5.13596 -26.2593 -1.8581 10.0369 -87.5903 6.8325 -2.68112 4.8562 -4.84517 -2.46503 4.96914 -27.3531 -4.01566 3.82783 -7.34042 -4.01565 3.82782 157.157 -36.1372 6.64987 -73.9666 32.2099 -104.593 -108.617 32.6249 179.965 -49.0891 -17.0961 35.5297 -77.8616 -67.3805 97.5879 -20.3092 27.0377 -15.2235 161.655 10.0067 -143.841 14.0042 -2.80095 -23.0433 -102.625 -5.51384 148.114 86.1914 13.5232 -159.73 
-329.743 85.4539 -315.049 122.332 -7.01529 70.1383 -111.647 -18.6507 137.778 122.065 86.8646 -124.058 -7.29583 -49.2687 -88.7739 -11.77 -21.4648 -26.1368 -101.159 -45.0284 145.765 -48.6157 4.13723 -94.1534 166.251 2.58657 20.1467 -5.07751 5.58334 -27.1642 -1.84824 10.2404 -87.3392 6.42275 -2.56393 5.32774 -5.25702 -2.32734 5.43502 -27.7503 -4.04525 4.31352 -7.73761 -4.04527 4.31352 156.838 -36.0375 6.33955 -90.8051 32.2181 -98.3637 90.5299 -46.843 -11.2815 -51.7221 -17.7396 33.2631 -75.4483 -66.2163 100.635 -18.4842 26.8422 -13.7025 162.291 9.18973 -145.077 13.4375 -2.62563 -22.4792 -98.8051 -1.55051 151.486 90.0102 14.8571 -160.997 
-332.87 85.8477 -317.771 123.701 -8.1135 70.2945 -107.588 -17.6048 138.204 169.105 76.0937 -170.623 1.44942 -51.0488 -93.9377 16.904 -8.7409 -3.08088 -114.835 -46.0683 139.647 -67.4425 9.07049 -93.9004 173.171 -7.11271 26.6631 -6.67896 6.37017 -28.8419 -1.83849 10.4581 -87.0501 5.98303 -2.43359 5.87248 -5.69936 -2.17326 5.97341 -28.1741 -4.0841 4.8732 -8.16141 -4.0841 4.8732 156.593 -36.0956 5.98978 -125.209 29.7221 -84.5043 51.1566 -37.6997 -50.741 -54.9896 -18.3425 29.1365 -73.0208 -64.8936 103.782 -16.3122 26.7151 -11.9705 162.762 8.44337 -145.918 12.892 -2.47114 -21.9983 -102.575 -10.4547 153.938 92.9485 14.7876 -146.509 
-336.193 86.1781 -320.738 125.109 -9.32434 70.4684 -103.078 -16.7876 138.495 175.798 65.7989 -176.617 19.8136 -52.1367 -93.0632 30.3972 6.01064 17.6111 -141.306 -48.6122 126.647 -92.0287 21.7629 -86.5366 176.12 -24.1793 40.1507 -5.07609 6.35329 -31.2453 -1.83008 10.6782 -86.7305 5.53681 -2.29558 6.47736 -6.14871 -2.00889 6.57154 -28.6008 -4.13345 5.49275 -8.58819 -4.13344 5.49274 156.466 -36.3622 5.61523 177.06 11.5506 -67.794 38.1783 8.47082 -93.1727 -54.5029 -19.1178 25.4535 -70.6809 -63.4617 106.909 -13.8551 26.6866 -10.0934 162.999 7.89031 -146.251 12.4182 -2.35208 -21.6642 81.3185 38.3165 28.1049 84.3622 -9.42547 62.0132 
-339.654 85.268 -323.66 126.5 -10.6136 70.6595 -101.649 -13.6315 142.593 155.629 58.8639 -161.439 38.4042 -47.8598 -87.9717 30.6199 13.3577 36.3264 -156.415 14.4752 72.3712 -126.26 -42.93 -21.1596 154.34 -13.4555 128.176 -8.13987 8.12104 -34.7868 -1.8242 10.8896 -86.3885 5.10614 -2.15526 7.12732 -6.583 -1.84026 7.21462 -29.0086 -4.19387 6.15621 -8.99593 -4.1939 6.1562 156.493 -36.8727 5.23383 116.088 -14.8292 -73.2894 90.1763 64.0147 -168.792 -44.752 -18.3775 30.6547 -68.4902 -61.974 109.934 -11.2819 26.7611 -8.03799 163.027 7.58629 -146.003 12.0427 -2.27542 -21.5202 103.383 4.72034 18.7169 64.1947 -18.8708 28.6788 
-343.108 83.6372 -326.467 127.827 -11.9474 70.8693 -100.993 -10.5637 147.075 139.832 50.5612 -151.05 57.1893 -42.52 -81.7087 25.2521 12.3524 52.6877 176.215 21.5863 1.95924 89.3048 48.3133 131.188 76.3084 29.9429 17.1744 -11.8785 9.69664 -35.8795 -1.82141 11.0829 -86.0331 4.71006 -2.01694 7.80564 -6.98322 -1.67252 7.88612 -29.3785 -4.26444 6.84631 -9.36582 -4.26446 6.8463 156.7 -37.6455 4.86659 71.8143 -23.3721 -88.4243 131.695 -10.5861 179.676 -38.9816 -16.2911 35.1366 -66.4814 -60.4836 112.804 -8.66158 26.8849 -5.94278 162.811 7.56552 -145.304 11.7701 -2.24267 -21.591 105.971 3.03148 15.88 61.2378 -19.7576 31.9025 
-346.382 82.1981 -329.13 129.052 -13.293 71.1002 -99.274 -8.99716 149.819 135.832 42.2789 -149.421 77.8124 -36.8397 -72.2707 19.5956 5.54955 64.5353 109.535 23.3542 -11.6388 166.546 4.4769 60.2743 144.884 55.9283 44.5644 -19.7465 9.81056 -27.9195 -1.82151 11.2502 -85.6741 4.36413 -1.88343 8.49355 -7.33364 -1.50917 8.56741 -29.6954 -4.34213 7.54429 -9.68278 -4.34213 7.54429 157.107 -38.6844 4.53978 47.5717 -23.4619 -96.6387 156.854 -12.8838 -179.987 -37.7534 -15.299 35.801 -64.6731 -59.046 115.474 -6.15792 26.9882 -3.80486 162.401 7.79412 -144.251 11.5916 -2.25271 -21.89 108.52 1.25976 13.1304 58.3734 -20.4047 34.913 
